<svg width="260" height="117" viewBox="0 0 260 117" fill="none" xmlns="http://www.w3.org/2000/svg">
<mask id="path-1-inside-1_809_11653" fill="white">
<path fill-rule="evenodd" clip-rule="evenodd" d="M180.799 12C180.269 12 179.76 11.7893 179.385 11.4142L168.556 0.585787C167.775 -0.195262 166.509 -0.195262 165.728 0.585786L154.899 11.4142C154.524 11.7893 154.016 12 153.485 12H15C6.71573 12 0 18.7157 0 27V102C0 110.284 6.71572 117 15 117H245C253.284 117 260 110.284 260 102V27C260 18.7157 253.284 12 245 12H180.799Z"/>
</mask>
<path fill-rule="evenodd" clip-rule="evenodd" d="M180.799 12C180.269 12 179.76 11.7893 179.385 11.4142L168.556 0.585787C167.775 -0.195262 166.509 -0.195262 165.728 0.585786L154.899 11.4142C154.524 11.7893 154.016 12 153.485 12H15C6.71573 12 0 18.7157 0 27V102C0 110.284 6.71572 117 15 117H245C253.284 117 260 110.284 260 102V27C260 18.7157 253.284 12 245 12H180.799Z" fill="white"/>
<path d="M154.899 11.4142L154.192 10.7071L154.899 11.4142ZM179.385 11.4142L178.678 12.1213L179.385 11.4142ZM168.556 0.585787L167.849 1.29289L168.556 0.585787ZM165.728 0.585786L165.021 -0.121321L165.728 0.585786ZM167.849 1.29289L178.678 12.1213L180.092 10.7071L169.263 -0.12132L167.849 1.29289ZM155.607 12.1213L166.435 1.29289L165.021 -0.121321L154.192 10.7071L155.607 12.1213ZM15 13H153.485V11H15V13ZM1 27C1 19.268 7.26801 13 15 13V11C6.16344 11 -1 18.1634 -1 27H1ZM1 102V27H-1V102H1ZM15 116C7.26801 116 1 109.732 1 102H-1C-1 110.837 6.16344 118 15 118V116ZM245 116H15V118H245V116ZM259 102C259 109.732 252.732 116 245 116V118C253.837 118 261 110.837 261 102H259ZM259 27V102H261V27H259ZM245 13C252.732 13 259 19.268 259 27H261C261 18.1634 253.837 11 245 11V13ZM180.799 13H245V11H180.799V13ZM154.192 10.7071C154.005 10.8946 153.75 11 153.485 11V13C154.281 13 155.044 12.6839 155.607 12.1213L154.192 10.7071ZM178.678 12.1213C179.24 12.6839 180.003 13 180.799 13V11C180.534 11 180.279 10.8946 180.092 10.7071L178.678 12.1213ZM169.263 -0.12132C168.092 -1.29289 166.192 -1.29289 165.021 -0.121321L166.435 1.29289C166.826 0.902369 167.459 0.902369 167.849 1.29289L169.263 -0.12132Z" fill="#DDE3EB" mask="url(#path-1-inside-1_809_11653)"/>
</svg>
